<svg xmlns="http://www.w3.org/2000/svg" viewBox="0 0 600 400" width="600" height="400" role="img" aria-label="GitHub Project Portfolio">
  <rect width="600" height="400" fill="#0d1117"/>
  <g fill="none" stroke="#21262d" stroke-width="1">
    <path d="M0 100 H600 M0 200 H600 M0 300 H600 M100 0 V400 M200 0 V400 M300 0 V400 M400 0 V400 M500 0 V400"/>
  </g>
  <g transform="translate(300 150)">
    <path fill="#f0f6fc" d="M0-48a48 48 0 0 0-15.2 93.6c2.4.4 3.3-1 3.3-2.3 0-1.2 0-4.2-.1-8.2-13.3 2.9-16.1-6.4-16.1-6.4-2.2-5.5-5.3-7-5.3-7-4.3-3 .3-2.9.3-2.9 4.8.3 7.3 4.9 7.3 4.9 4.3 7.3 11.2 5.2 13.9 4 .4-3.1 1.7-5.2 3-6.4-10.6-1.2-21.8-5.3-21.8-23.6 0-5.2 1.9-9.5 4.9-12.8-.5-1.2-2.1-6.1.5-12.7 0 0 4-1.3 13.1 4.9a45.6 45.6 0 0 1 23.9 0c9.1-6.2 13.1-4.9 13.1-4.9 2.6 6.6 1 11.5.5 12.7 3 3.3 4.9 7.6 4.9 12.8 0 18.3-11.2 22.4-21.9 23.6 1.7 1.5 3.2 4.4 3.2 8.9 0 6.4-.1 11.6-.1 13.2 0 1.3.9 2.8 3.3 2.3A48 48 0 0 0 0-48"/>
  </g>
  <text x="300" y="270" text-anchor="middle" font-family="ui-monospace, SFMono-Regular, Menlo, Consolas, monospace" font-size="34" font-weight="700" fill="#f0f6fc">GitHub Portfolio</text>
  <text x="300" y="308" text-anchor="middle" font-family="ui-monospace, SFMono-Regular, Menlo, Consolas, monospace" font-size="20" fill="#58a6ff">28 projects · @g4rrzx</text>
</svg>
